<svg width="480" height="118" viewBox="0 0 480 118" fill="none" xmlns="http://www.w3.org/2000/svg">
<path d="M35.6523 15.723C44.333 0.687631 63.5587 -4.46387 78.594 4.21681C93.6294 12.8975 98.7809 32.1231 90.1002 47.1585L58.6647 101.606C49.984 116.642 30.7584 121.793 15.723 113.113C0.687631 104.432 -4.46387 85.2062 4.21681 70.1709L35.6523 15.723Z" fill="url(#paint0_linear_11_43)"/>
<path d="M36.4382 47.1585C27.7575 32.1231 32.909 12.8975 47.9444 4.21681C62.9798 -4.46387 82.2054 0.687631 90.8861 15.723L122.322 70.1709C131.002 85.2062 125.851 104.432 110.815 113.113C95.7801 121.793 76.5544 116.642 67.8737 101.606L36.4382 47.1585Z" fill="url(#paint1_linear_11_43)"/>
<ellipse cx="63.2694" cy="74.3414" rx="31.6346" ry="31.6346" fill="white"/>
<ellipse cx="63.2694" cy="74.3414" rx="31.6346" ry="31.6346" fill="white"/>
<ellipse cx="63.2695" cy="74.3412" rx="15.8173" ry="15.8173" fill="#F54A3F"/>
<path d="M142.435 102.022L151.292 49.4292C152.178 44.1884 153.507 39.7965 155.278 36.2534C157.124 32.7103 159.486 29.8316 162.364 27.6171C165.317 25.4027 168.823 23.8157 172.883 22.8561C177.016 21.8965 181.814 21.4167 187.277 21.4167C190.229 21.4167 193.292 21.6013 196.466 21.9704C199.714 22.2656 202.814 22.7454 205.767 23.4097L205.988 24.7384C205.693 26.1409 205.472 27.9493 205.324 30.1637C205.25 32.3781 205.213 34.6295 205.213 36.9177C205.213 39.1321 205.213 40.9775 205.213 42.4538V102.022H189.38V41.1251C189.38 39.2059 189.417 37.4713 189.491 35.9212C189.639 34.2973 189.86 32.821 190.155 31.4924L192.37 35.589C191.484 35.2938 190.34 35.1093 188.937 35.0354C187.609 34.8878 186.28 34.814 184.951 34.814C180.892 34.814 177.644 35.3676 175.208 36.4748C172.846 37.5082 171.038 39.1321 169.783 41.3465C168.528 43.561 167.605 46.3659 167.015 49.7613L158.378 102.022H142.435ZM155.278 79.9882V66.9231H196.466V79.9882H155.278Z"/>
<path d="M236.368 102.022L215.664 42.8966V41.568H232.161L248.437 94.3819H244.894L261.613 41.568H277.667V42.8966L256.077 102.022H236.368Z"/>
<path d="M318.01 103.129C312.474 103.129 307.528 102.501 303.173 101.247C298.818 99.9918 295.127 98.1096 292.101 95.5999C289.075 93.0164 286.749 89.7317 285.126 85.7457C283.575 81.7597 282.8 77.0356 282.8 71.5734C282.8 65.0778 284.018 59.5048 286.454 54.8545C288.89 50.1304 292.322 46.5135 296.751 44.0038C301.254 41.4204 306.495 40.1286 312.474 40.1286C319.191 40.1286 324.653 41.5311 328.86 44.336C333.068 47.0671 336.094 50.9055 337.94 55.851C339.785 60.7227 340.56 66.3326 340.265 72.6806L340.154 76.3344H292.765V66.1481H325.096V65.4837C325.096 60.9811 324.026 57.5487 321.885 55.1867C319.818 52.8246 316.644 51.6436 312.363 51.6436C309.706 51.6436 307.307 52.2341 305.166 53.4151C303.099 54.5224 301.438 56.4415 300.184 59.1726C299.003 61.9038 298.412 65.6314 298.412 70.3555V72.6806C298.412 77.3309 299.298 80.9847 301.069 83.642C302.841 86.2255 305.277 88.0708 308.377 89.1781C311.477 90.2853 315.057 90.8389 319.117 90.8389C322.734 90.8389 325.908 90.5067 328.639 89.8424C331.37 89.1781 333.511 88.403 335.061 87.5172H336.168V100.029C334.101 100.914 331.555 101.653 328.528 102.243C325.576 102.834 322.07 103.129 318.01 103.129Z"/>
<path d="M351.136 71.5734C351.136 64.7087 352.391 58.9512 354.901 54.3009C357.41 49.5768 360.916 46.0337 365.419 43.6717C369.922 41.3096 375.089 40.1286 380.92 40.1286C386.678 40.1286 391.808 41.3096 396.31 43.6717C400.813 46.0337 404.319 49.5768 406.829 54.3009C409.339 58.9512 410.593 64.7087 410.593 71.5734C410.593 78.5119 409.339 84.3063 406.829 88.9566C404.319 93.6069 400.813 97.15 396.31 99.5858C391.808 101.948 386.678 103.129 380.92 103.129C375.015 103.129 369.811 101.948 365.308 99.5858C360.88 97.15 357.41 93.6069 354.901 88.9566C352.391 84.3063 351.136 78.5119 351.136 71.5734ZM366.969 71.5734C366.969 78.069 368.15 82.9777 370.512 86.2993C372.874 89.5471 376.344 91.171 380.92 91.171C385.423 91.171 388.855 89.5471 391.217 86.2993C393.579 82.9777 394.76 78.069 394.76 71.5734C394.76 65.0778 393.579 60.206 391.217 56.9582C388.855 53.6366 385.423 51.9758 380.92 51.9758C376.344 51.9758 372.874 53.6366 370.512 56.9582C368.15 60.206 366.969 65.0778 366.969 71.5734Z"/>
<path d="M425.193 102.022V64.2658C425.193 62.7895 425.156 60.9073 425.082 58.619C425.008 56.257 424.898 53.9688 424.75 51.7543C424.676 49.4661 424.455 47.6576 424.086 46.329L424.418 45.4432C426.632 44.4836 429.253 43.6348 432.279 42.8966C435.379 42.0847 438.553 41.4204 441.801 40.9037C445.123 40.387 448.26 40.1286 451.212 40.1286C454.977 40.1286 458.557 40.5346 461.952 41.3465C465.422 42.0847 468.522 43.4502 471.253 45.4432C473.984 47.4362 476.125 50.2042 477.675 53.7473C479.225 57.2166 480 61.6823 480 67.1446V102.022H464.499V67.8089C464.499 63.7491 463.908 60.6489 462.727 58.5083C461.546 56.2939 459.849 54.7807 457.634 53.9687C455.42 53.083 452.799 52.6401 449.773 52.6401C447.559 52.6401 445.307 52.8984 443.019 53.4151C440.805 53.9318 438.849 54.5224 437.151 55.1867L439.476 51.3114C439.845 52.4187 440.14 53.858 440.362 55.6296C440.583 57.4011 440.694 59.431 440.694 61.7192V102.022H425.193Z"/>
<defs>
<linearGradient id="paint0_linear_11_43" x1="63.2692" y1="0" x2="63.2692" y2="117.329" gradientUnits="userSpaceOnUse">
<stop stop-color="#BF39B8"/>
<stop offset="1" stop-color="#4B59BC"/>
</linearGradient>
<linearGradient id="paint1_linear_11_43" x1="63.2692" y1="0" x2="63.2692" y2="117.329" gradientUnits="userSpaceOnUse">
<stop stop-color="#BF39B8"/>
<stop offset="1" stop-color="#4B59BC"/>
</linearGradient>
</defs>
</svg>
